<?xml version="1.0" encoding="UTF-8"?>
<!DOCTYPE svg PUBLIC "-//W3C//DTD SVG 1.1//EN" "http://www.w3.org/Graphics/SVG/1.1/DTD/svg11.dtd">
<!-- Creator: CorelDRAW -->
<svg xmlns="http://www.w3.org/2000/svg" xml:space="preserve" width="297mm" height="90mm" version="1.1" style="shape-rendering:geometricPrecision; text-rendering:geometricPrecision; image-rendering:optimizeQuality; fill-rule:evenodd; clip-rule:evenodd"
viewBox="0 0 29700 9000"
 xmlns:xlink="http://www.w3.org/1999/xlink"
 xmlns:xodm="http://www.corel.com/coreldraw/odm/2003">
 <defs>
  <style type="text/css">
   <![CDATA[
    .fil1 {fill:#5CBF00;fill-rule:nonzero}
    .fil0 {fill:#E72653;fill-rule:nonzero}
   ]]>
  </style>
 </defs>
 <g id="Layer_x0020_1">
  <metadata id="CorelCorpID_0Corel-Layer"/>
  <path class="fil0" d="M2342.35 5650.78c288.5,0 529.85,-13.87 724.04,-41.61 -22.19,-410.57 -124.83,-742.08 -307.93,-994.52 -183.09,-252.45 -396.7,-378.67 -640.82,-378.67 -188.64,0 -345.38,81.84 -470.21,245.51 -124.84,163.67 -187.26,375.89 -187.26,636.66 0,355.09 294.06,532.63 882.18,532.63zm-832.24 1905.83c377.28,0 706.01,-67.97 986.2,-203.9 280.19,-135.93 459.12,-314.86 536.79,-536.79 -216.38,16.64 -499.34,24.96 -848.88,24.96 -504.89,0 -900.2,-131.77 -1185.94,-395.31 -285.73,-263.54 -428.6,-644.98 -428.6,-1144.33 0,-371.73 70.74,-729.59 212.22,-1073.58 141.48,-343.99 356.48,-635.28 644.98,-873.85 288.51,-238.57 618.63,-357.86 990.37,-357.86 477.15,0 858.59,235.8 1144.32,707.4 285.74,471.6 453.57,1073.59 503.51,1805.95l706.56 0c190.97,0 387.5,-6.83 574.24,-49.93 144.26,-33.29 244.12,-73.51 299.61,-120.67 55.48,-47.16 83.22,-95.71 83.22,-145.65 0,-199.73 -37.45,-464.66 -112.35,-794.78 -74.9,-330.12 -167.84,-625.57 -278.8,-886.34l1206.74 -491.01c144.26,599.21 216.38,1129.06 216.38,1589.57 0,599.21 -94.32,1076.36 -282.96,1431.45 -155.35,299.6 -378.66,511.82 -669.95,636.66 -361.46,154.91 -752.42,181.7 -1140.66,186.3 -6.47,0.62 -12.96,0.95 -19.47,0.95l-179.05 0 -21.53 0 -481.85 0c-149.8,571.47 -438.31,1036.14 -865.53,1394 -427.21,357.86 -982.04,536.79 -1664.47,536.79 -405.02,0 -760.11,-58.26 -1065.27,-174.77l282.96 -1231.71c233.03,110.96 518.77,166.45 857.21,166.45zm2903.67 66.58l2097.23 -191.42 -83.22 973.72 -2097.24 191.41 83.23 -973.71zm6989.95 -7415.24c105.41,2230.4 158.12,3426.05 158.12,3586.95 0,2108.33 -865.52,3162.5 -2596.58,3162.5 -582.56,0 -1084.68,-113.74 -1506.35,-341.22l224.71 -1281.65c171.99,127.61 407.79,216.39 707.4,266.32 44.38,-249.67 66.58,-515.99 66.58,-798.95 0,-471.6 -55.48,-907.14 -166.45,-1306.61 -155.35,-638.05 -471.6,-1173.45 -948.75,-1606.22l840.56 -948.75c593.66,749.02 970.94,1492.48 1131.84,2230.4 83.23,393.92 124.84,840.56 124.84,1339.9 0,471.6 -58.26,851.66 -174.77,1140.16 865.52,-27.74 1298.29,-374.5 1298.29,-1040.29 0,-638.05 -91.55,-2077.82 -274.64,-4319.31l1115.2 -83.23z"/>
  <path class="fil1" d="M16645.15 6865.85c-5.25,0 -10.47,-0.05 -15.7,-0.1 -31.15,0.09 -62.27,0.1 -93.33,0.1 -20.19,0 -38.67,-3.06 -55.54,-8.86 -360.05,-39.85 -646.42,-214.43 -859.08,-523.77 -332.9,410.57 -901.59,615.85 -1706.09,615.85 -937.65,0 -1406.48,-432.76 -1406.48,-1298.29 0,-321.79 44.39,-679.66 133.16,-1073.58l957.07 249.67c-77.67,149.8 -116.51,280.19 -116.51,391.15 0,294.06 227.48,441.09 682.43,441.09 521.54,0 871.08,-61.03 1048.62,-183.1 -22.19,-49.93 -52.71,-131.77 -91.55,-245.51 -38.83,-113.73 -69.35,-198.35 -91.54,-253.83l-815.59 -2280.33 1081.9 -424.44 832.24 2455.1c116.51,316.25 221.93,525.7 316.25,628.34 90.75,98.75 248.28,149.99 472.56,153.73 172.78,-1.49 348.85,-10.9 516.97,-49.7 144.26,-33.29 244.12,-73.51 299.61,-120.67 55.48,-47.16 83.22,-95.71 83.22,-145.65 0,-199.73 -37.45,-464.66 -112.35,-794.78 -74.9,-330.12 -167.84,-625.57 -278.8,-886.34l1206.74 -491.01c144.26,599.21 216.38,1129.06 216.38,1589.57 0,599.21 -94.32,1076.36 -282.96,1431.45 -155.35,299.6 -378.66,511.82 -669.95,636.66 -361.98,155.13 -753.54,181.77 -1142.33,186.32 -5.92,0.59 -11.86,0.93 -17.81,0.93l-16.64 0 -74.9 0zm-142.31 757.34l2097.23 -191.42 -83.22 973.72 -2097.24 191.41 83.23 -973.71zm3378.04 1181.77c-244.12,0 -499.34,-49.93 -765.66,-149.8l266.32 -1273.32c149.8,77.67 316.25,116.51 499.34,116.51 388.38,0 718.5,-160.9 990.36,-482.7 271.86,-321.8 407.8,-699.08 407.8,-1131.84 0,-321.8 -149.81,-898.82 -449.41,-1731.05l1098.55 -474.38c44.39,116.52 95.71,258 153.96,424.44 58.26,166.45 110.97,313.48 158.13,441.09 47.16,127.61 95.71,249.67 145.64,366.18 172,399.48 560.37,599.21 1165.13,599.21l141.48 0c63.6,0 117.87,0 182.26,0l191.41 0c782.3,0 1416.19,-61.03 1901.66,-183.09 485.47,-122.06 919.63,-316.25 1302.45,-582.56 -255.22,-88.78 -524.31,-206.68 -807.27,-353.71 -282.96,-147.02 -517.37,-264.92 -703.24,-353.7 -185.86,-88.77 -334.28,-133.15 -445.24,-133.15 -110.97,0 -203.9,59.64 -278.8,178.93 -74.9,119.28 -112.35,273.25 -112.35,461.89l-1015.33 -124.84c83.22,-532.63 278.8,-961.23 586.72,-1285.8 307.93,-324.58 692.15,-486.86 1152.65,-486.86 205.29,0 434.15,63.8 686.6,191.41 252.44,127.61 481.31,269.09 686.59,424.44 205.29,155.35 442.48,296.84 711.57,424.44 269.09,127.61 517.37,191.42 744.85,191.42 233.02,0 485.47,-41.61 757.33,-124.84l33.29 1190.1c-244.12,105.42 -588.11,160.9 -1031.97,166.45 -554.83,588.11 -1183.16,1027.81 -1885.02,1319.1 -701.85,291.28 -1557.67,436.92 -2567.45,436.92l-233.03 0c-60.36,0 -113.26,0 -173.93,0l-183.09 0c-454.95,0 -804.49,-119.29 -1048.62,-357.86 -122.06,687.98 -385.6,1242.81 -790.62,1664.47 -405.02,421.67 -896.04,632.5 -1473.06,632.5zm5650.05 -6824.34c-155.35,0 -285.74,-54.1 -391.15,-162.29 -105.42,-108.19 -158.13,-237.18 -158.13,-386.99 0,-155.35 52.71,-285.73 158.13,-391.15 105.41,-105.42 235.8,-158.12 391.15,-158.12 149.8,0 278.8,52.7 386.99,158.12 108.19,105.42 162.29,235.8 162.29,391.15 0,149.81 -54.1,278.8 -162.29,386.99 -108.19,108.19 -237.19,162.29 -386.99,162.29z"/>
 </g>
</svg>
