<svg xmlns="http://www.w3.org/2000/svg" xml:space="preserve" fill-rule="evenodd" clip-rule="evenodd" image-rendering="optimizeQuality" shape-rendering="geometricPrecision" text-rendering="geometricPrecision" version="1.1" viewBox="0 0 1181 1181"><path d="M14 302c-3-6-8-10-14-13v4c3 2 7 4 10 8 5 5 3 13-4 16l-6 2v4l11-4c5-3 8-12 3-17z" fill="#e0e0e0" fill-rule="nonzero"/><path d="M3 353v-3l-1-13 13-2c8-1 15-1 21-7 9-7 14-16 13-28-5-28-26-32-49-32v4c22 0 49 7 45 37-1 7-7 13-13 17-7 6-16 5-24 6l-8 2v25c3 0 4-3 3-6zm2 22c0-3-3-4-5-5v13c2-2 5-5 5-8zM319 30c2-3 5-5 8-5 4 0 5-2 5-5l-1-4V3l13-1 7-1h-24l-1 8 1 7v5l-6 1-3-1-3-14V1h-6l6 27c0 2 2 3 4 2zm6 20c4 0 8-5 8-9 0-3-4-6-8-5-3 0-8 4-8 8 0 3 5 6 8 6zM43 241c2 0 3 0 3-2-1-2 5-13 10-24l13-23c96-177-24 27-24 27 19-38 39-75 57-113 2-7-2-12-8-14-10-2 1-4-13-4-2 1-4 3-6 1-3-3-7-2-10-1s-37 5-42 0c-3-3-6-5-9-1l-5 3c-4-5-7-7-9-5v5l1-2 4 5c3 4-1 5-4 4H0v3h1c3 0 5 0 8 3 4 7 19 10 3-1 0-4 10-3 12 1 15 20 2-4 6-4l5-1c11 0 31 13 25 2 3 0 38 6 37 10L39 225c0 3-1 3-3 2l-28-6-8-1v23l43-2z" fill="#e0e0e0" fill-rule="nonzero"/><path d="M0 103v2-2zm16 34 6 2c3 1 4 3 3 5-2 4-7 9-12 9l-2 1 2 2 5-1 9-9c3-3 2-7-3-10l-7-1c-3-1-4-3-2-6l5-4 9-1 15-1 3-1-3-3-8 1v-1l-16 3c-5 0-7 3-9 7-1 5 0 7 5 8z" fill="#e0e0e0" fill-rule="nonzero"/><path d="m4 136 4-6 3-7c0-3 0-5-2-7l-7 1-2 4v5-1l3-5 4-1 1 3-5 10c-4 6-4 6 3 9l-2 3-4 4v4l7-6c4-4 4-6-3-10zm79 30 11-22-15 30 4-8zM56 26c6-3 2-19 2-25h-4c2 34-22 31-54 29v3c18 0 38 3 56-7z" fill="#e0e0e0" fill-rule="nonzero"/><path d="M15 17c5 1 10-3 15 0 3 1 5-2 3-5L30 1h-6c5 13-13 20-9 0h-4l-1 10c-2 6-2 6 5 6zm348 243 49-2c11-2 23-1 34-1l21 1c2 0 3 2 1 5l-5 5c-15 10-28 23-42 36-4 5-9 5-16 2-28-10-52-27-75-44v-2h33zm112 74h-2l-14-15-13-15-6-5c-1-3-2-5 1-8l28-22 2 1 4 64zm-4 6-3 2-57 7h-13c-18 2-35 1-54-1h-9c-3 0-4-2-2-5l14-17 22-21c6-7 8-7 15-2l26 11c5 1 9 1 11-3l8-9c3-3 5-3 8 0 12 10 21 24 32 35l2 3zm-145 3-3 2-1-3v-6l3-35-1-17v-9c0-3-2-8 1-8 2-1 6 0 9 2l33 23c4 3 4 4 1 7l-26 28-16 16zm-6-76v21l-2 50h-1v2c0 11 1 12 12 13h74l24-2 14-2c13 0 25-5 37-2l3-2v-6l-4-31-2-28 1-17c2-4 0-7-5-8l-18-2c-13-1-25-2-39 0-27 5-54 4-82 2-8 0-12 4-12 12zM69 830l-5-4c-2-3-3-6 1-9l28-21 5 64-29-30zm31-41c2-4 0-7-5-8-37-3-60-1-95 1v4c31 0 58-2 90-1 7 0-2 7-3 9l-21 16c-12 11-22 29-37 23-10-4-20-8-29-14v8l34 14c5 1 8 1 11-4 4-4 10-14 15-9 10 8 28 28 35 38l-3 2c-33 4-60 7-92 8v4h1c153 3 81-21 99-91zM400 2l-10 5c-3 1-3 4-3 6 2 6 4 7 9 8 6 0 12-1 17-3l14-3 21-3c10-2 10-3 16 5l2 3 11 9c10 5 22 2 33-2 7-3 14-8 21-13 4-3 8-8 10-13h-5v1c-2 3-4 7-8 10-6 4-13 9-21 12-11 4-23 6-34-3l-7-11c-1-5-3-6-7-5l-13 4-18 3-17 3c-6 2-11 1-17 0l-2-2c-1-1 0-2 1-3l9-3c5 0 7-2 8-6h-6l-4 1zM152 33c-5-4-6-8-4-12s7-6 13-5l3 1c-1 1 12 22-12 16zm55-6-3-15c-1-2-1-4 1-5l15-6h-5l-10 4c-2 1-3 1-4-1l-4-3h-3 1c9 10-8 16-14 6l-3-3-7-3h-9c4 1 9 2 12 5 4 2 6 6 8 9-12 7-6 0-12-9-1 4-2 8-7 8l-3-1c-6-1-14 3-16 10v3c5 18 33 13 33 7 1-3 0-5-1-9-1-3 1-4 6-6 2-1 3 2 4 3 2 6 1 12-1 18-14 43-92-19-33-38h-13c-3 1-5 3-7 7l-3 8c-14 32 50 62 61 15 1-4 0-8-2-12-3-5 8-7 13-9 29 92-123 74-82-9h-3c-38 77 100 104 91 26z" fill="#e0e0e0" fill-rule="nonzero"/><path d="m98 6-1 2 1-2zm71 89-1-4 1 4zm1-3c8-3 9-2 10 6l2 13-1 4c-2 0-4 1-5-2l-2-4-4-17zm-38 17 2-5-2 5zm8-1-2 5 2-5zM94 31l4 28c4 10 10 19 19 25l18 8c-1 4-3 8-3 13l-4 9c-1 2-1 2 1 2l7 1 3-2 5-20c-3-1-3 1-3 2l-2 11c-1 3-4 6-6 5v-5l2-5 3-8c-1-4 1-3 3-2 6 2 13 2 19 0l5-1 2 2 6 18c0 2 0 4 2 4 2 2 6 2 8 3l1-1 1-4-3-22c-1-3 0-3 2-4l21-9c15-8 20-21 24-36l2-22-1-9-4-11h-3l1 1c3 8 5 14 4 22s-1 16-4 25c-4 14-12 25-26 31-15 7-30 11-45 11-23-1-39-5-49-27-4-8-6-17-7-26l-1-21 2-8 3-8h-3c-3 10-6 19-4 30zM733 4l17-2c4 0 4 0 5 4v4l5 1 7-1c3-1 3-1 2-5l-1-2 24-2h-27l1 4-2 2h-4l-3-4 1-2h-15l-14 1-6-1h-6l4 1c3 2 7 3 12 2z" fill="#e0e0e0" fill-rule="nonzero"/><path d="M795 40h-3 3zm-85-7c1 6 5 8 8 9 9 2 19 3 28 1l13 1h8l33-2c6 0 10-2 12-7 2-3 3-6 3-10l1-14V1h-3l-2 30-4 5c-5 2-10 4-15 4h-68c-5 0-8-2-9-7-4-5-5-12-5-18l-1-14h-3l1 8 3 24z" fill="#e0e0e0" fill-rule="nonzero"/><path d="M795 40h-3" fill="none" stroke="#e0e0e0" stroke-miterlimit="23" stroke-width="3"/><path d="m885 53 28-52h-15l-1 2-12 25c-4 6-4 6-11 4-8-2-8-2-5-10l11-21h-4l-12 24c-4 7-3 15-2 23 0 0 18 12 23 5zm36-26c3-10 13-23 24-15 16 16-5 37-20 28-3-2-5-5-5-10l1-3zm30 21c2-7 6-12 7-19-1-4-2-8-5-11-9-19-29-10-35 2-3 8-4 16 3 23s21 19 30 5z" fill="#e0e0e0" fill-rule="nonzero"/><path d="m937 22 6 4-5 7c-3 1-8-1-9-3l-1-1c0-2 5-7 9-7zm-9 12c2 2 5 2 5 2h3c5 1 7-2 8-6 2-4 1-8-2-10-4-2-7-2-10 1l-5 3c-3 4-3 7 1 10zM410 711c6-13 4-13 22-11l-3 9c-7 14-28 77-44 73-8-2-9-2-5-9l30-62zm-29 93c3 0 7-1 9 1 3 2 4 1 5-2 7-7 8-5 12-15l10-22a1326 1326 0 0 0 22-50c-5-43-26-28-38 5l-26 55c-3 6-8 30 6 28zm-23-96c1-5 1-10 4-14 3-8 14-10 22-4 11 8 9 24-2 27-8 2-26 7-24-9zm35 6c-1-2 3-8 3-11-1-17-27-28-37-12-5 6-7 14-7 22 0 18 31 19 41 1zm63 48c26 21-26 45-26 19 4-10 12-29 26-19zm5 36c4-6 7-11 8-19l-4-10c-17-30-51 6-34 24 8 7 22 20 30 5z" fill="#e0e0e0" fill-rule="nonzero"/><path d="M375 699c2 0 6-2 7 2 3 12-25 7-7-2zm-3 14c8 0 13-4 13-10s-2-8-8-8c-8 0-12 2-12 8s3 9 7 10zm76 59 6 5-6 6c-1 2-8-1-9-3v-1c0-1 6-7 9-7zm-9 13 5 2h4c4 0 7-3 8-7s0-7-4-10c-3-2-6-1-9 0l-5 5c-4 4-3 6 1 10zm200-671c-4 3-21 9-21 0 0-3 17-4 21 0zm-20-64c0-1-2-3 1-5 6-3 5-2 12 0 3 1 5 2 6 4l-2 4c-10 20-1 51-8 54l-9-57zm2 78-1-4c6-5 11-1 19-5 1-1 2 0 2 2-10 10-3 6-20 7zM583 27c2 21 0 37 22 49 4 2 5 3 5 7l8 48c2 7 7 10 14 8 8-3 12-9 13-17 0-4 0-7-2-11 0-10-6-27 2-31 32-14 47-52 20-79h-6c5 3 8 8 11 12 18 29-4 51-27 65h-3c-2-2-3 0-2 2l1 26c-12-3-4-45 2-56l4-1 6-4-4-6-6 3 3-6c0-2 1-5-3-6-2 0-5 1-7 4l-1 3c0 2-1 4-4 3-3 0-5-1-5-5l-2-7-2-3c-2 1-4 2-4 4v7l3 5-5-1-4-1c-5-1-9 2-9 6 0 2 5 4 8 4h5c4 5 8 55 5 58-4-3-4-18-5-23l-2-6c0-4-2-4-4-5-13-9-21-15-21-33l1-2c-3-16 5-26 13-37h-3l-15 26zM431 1066c-7 7-14 13-23 17l-2 1c-4-1-4 0-4 2l2 16 1 5-4 1v-6l-2-24c0-7 4-13 8-18l9-5 1-3-10 1 3-6c0-2 0-3-3-4s-6 0-7 2c0 3-1 7-5 7-4-1-4-2-5-5l-4-9c-2 0-4 2-4 3v11l-5-2c-4-1-8 2-8 4 0 3 4 5 7 5h6l1 6 3 37-1 8-3-6-1-15-1-6c-1-2-2-3-6-3l-8-7c-19-16-10-40 3-57 7-9 17-11 28-9 5 0 12 1 17 4 8 3 15 9 20 16 6 10 6 21 2 32l-5 7zm-30 61-13 1-2-4 3-2c4 0 10 0 15-2 3-3 6 7-3 7zm-5-48 2 26-1 3h-6l-1-5-4-39-1-4c0-2-1-3 1-5 2-1 3-2 5-1l8 1c2 0 3 1 4 4l-2 4-4 9-1 7zm-8 34h13l4 2-3 2-11 3c-3-1-6-1-6-4 1 0-2-3 3-3zm-20-99-14 19-1 6v18c2 12 9 20 19 25 4 1 6 3 6 7l2 15c0 9 2 17 4 26 2 6 7 9 14 8 7-3 11-8 12-16l-1-10c-1-2 1-6-1-9l-2-8c-2-4 0-7 4-9 8-3 13-9 19-13 10-8 14-19 13-29 0-34-57-54-74-30zm293-428-4-25c-1-3 0-5 2-5h5c-4-1 10-3 8 6l3 19c0 11-14 5-14 5zm-48 6c-2 0-2 0-3-2-1-17-6-33-7-49l-3-45c0-2 1-4 3-4l9-2c19-4 7 94 22 101l-21 1zm-38-1c-4 0-4-1-5-5l-6-48-3-21c-1-3 1-5 3-5h9c3 11 22 79 2 79zm-35 0-7 1c-15 0-12-43-13-55 0-3 0-4 3-4 11-2 11-2 13 9 1 8 11 49 4 49zm148-1 29-2c4-1 7-3 11 1l3-1-2-4h-4c-14 1-39 10-40-4-2-10 3-32-15-28h-10c-5 1-7 2-6 8 2 10 10 29-7 29-22 4 15-104-44-101-6 1-7 2-6 8l3 37 4 35 4 24-9-1c-3 0-5-1-6-4-2-29 6-89-34-77l-2 3 1 5 4 24 4 38 1 8c0 2-2 3-4 3-17 0-15-51-12-57l-1-1c-4-2-8-6-13-5l-19 2c-3 0-3 1-2 3 1 36 16 67-20 62l-12-98-3-2c-2 6 11 78 10 98 0 4 1 5 5 6l10-1c50-5 132-8 182-8zm-430 493v-7c-2-6-8-23 0-23 7 0 10-3 11 6l3 19c2 10-13 5-14 5zm-47 6c-1 0-2-1-2-3-3-16-7-32-8-49 0-8-8-49 0-49l10-1c3-1 5 0 6 4l5 29 1 10 2 26 2 25c0 4 0 4 4 6l-20 2zm-44-6-5-48c-1-6-8-27 0-27l9-1 3 4 4 29 3 37v3c0 13-13 7-14 3zm-44 0-4-26-2-23c0-3 1-4 4-5 11-2 12-2 13 10l7 45c0 5-17 11-18-1zm167 0c-7 1-6 1-8-6v-6l-1-16-1-3c-3-2-7-5-12-4l-10 1c-6 1-8 2-7 7l2 11 2 9c0 7 0 7-7 9h-4c-5 1-5 1-5-4l-2-25-4-30-6-31c0-7-6-13-12-11l-14 1c-6 1-7 2-7 8l4 36 3 35 4 23c-5-1-13 2-13-4l-2-25v-9l-6-35c0-3-1-4-2-5-8-6-16-5-25-2l-2 2v6l4 23 4 38 1 7c2 7-11 7-11 0l-4-24c-1-14-3-18-3-31-4-2-7-4-11-4-6 2-13 2-19 2-3 0-3 1-2 4l2 9 2 38 3 12c-9 2-18 3-28 2 0-20-6-54-8-76l-4-21h-3l1 6c4 26 11 65 9 89 0 4 2 5 5 5h12l30-2 29-1h54l33-4 13-1h22c36-1 69-9 4-3zm467-927-3-23c0-3 1-4 4-5 11-2 12-2 13 10l7 45c0 3-1 4-3 4l-7 1c-7 0-7 0-8-7l-3-25zm38-44c0-3 1-5 4-6h9c2 0 2 3 3 4l7 66v3c0 7 0 7-8 7-4 0-5 0-5-4l-10-70zm40-20c0-7 17-10 19-3 5 32 7 59 10 91 1 9-17 1-18 5-6-32-8-60-11-93zm60 60h4c5-1 24 33-4 30 0-8-8-30 0-30zm-170 37c0 3 2 4 5 4h12l30-2 116-5 13-1c8 0 67 0 63-5-43 0-43 19-46-26l-1-3c-3-2-7-5-12-4l-10 1c-19 0 10 33-10 35l-4 1c-5 1-5 0-5-4-2-15-7-89-15-94-3-2-4-4-8-4-9 1-22-1-22 9 3 32 6 64 11 96-4 0-13 2-13-5-3-28 4-88-35-76-1 0-2 0-2 2l1 5 7 62 1 7c2 7-11 7-11 0l-4-24c-1-12 2-39-14-35l-19 2c-3 0-3 1-2 4l2 9 3 38 2 12c-9 2-18 3-28 2-4-33-6-65-12-97l-2-3-1 3c4 28 13 68 10 96zM520 68l5-22 3-6h1l2 34c1 2 1 4-2 4l-3 3 5 15h3l2-6 1-7v-3c-5-5-3-12-3-18l-2-18v-3c4 4 5 9 6 14l11 53c1 3 0 4-3 4-8 1-26 7-26-4V68zm13 15 1 2-1 2h-1l-1-2 1-2h1zm19 36c3 23 1 42 0 65l-2 3c-6 3-11 1-17 1l-1-1s-10-55-10-66c0-3 1-4 3-4l25-1 2 3zm-1 70 2-2-2 2zm-22-1c0 2 0 3 2 3 9 0 18 2 25-4-5-9 4-58-4-81-9-16-6-53-19-72l-3-2-5 5-6 19c-2 7-1 14-2 22-1 15-1 28 2 43l10 67z" fill="#e0e0e0" fill-rule="nonzero"/><path d="M556 187zm0 2-1 12 1-12zm1 98c2 4 3 7 0 9l-3 5h-1v-8l-2-4-4 3-1 4c6 3 3 8 4 11l-9-11c-3-1-3-2-2-5l4-14c1-4 2-6 8-6 2 0 3 1 3 5l3 11zm-19-45-6-31v-4c0-3 1-4 3-4h18c2 15 1 30 0 45 0 1 0 2-3 3-9 1-10 0-12-9zm-6-24 1 2-1-2zm21-16-2-1 2 1zm-4 66h-1c-7 2-7 2-7-6v-4c0-1 1-3 2-2 4 1 8-4 10 1 3 4 0 10-4 11zm5-67h-8c-5 0-11 0-16-2v1l-2 6 6 29c1 10 5 21 4 32v4c1 3 2 6 1 8l-4 14c-1 3-1 3 1 4 6 3 9 8 11 15l1 3c1 2 2 2 4 0l1-2c1-7 5-13 9-18v-6c-1-3-4-6-4-10 0-7-3-15-1-22l1-1c-4-7-1-13-2-19v-28l-1-3 2-18-1-1-1 8-1 6z" fill="#e0e0e0" fill-rule="nonzero"/><path d="m554 192-12 3-14-3c8 8 20 7 26 0zm477 711-1-20c-1-3 0-5 4-5l25-1c13 16-11 139-28 26zm1 22 1 2-1-2zm-3-95c0-8 3-15 5-23l3-7 2 35c0 7-1 1-4 8l4 14 7-13c-6-18-5-24-6-42 4 5 5 9 6 14l12 54c0 6-17 5-23 5-6 1-6 0-6-6v-39zm33 106c2-20 6-50-3-68l-2-12-5-25c-3-12-18-58-18-33l-6 19c-7 27-1 69 2 98l5 22c1 4 3 8 2 13l2 2c9 0 18 2 25-4-2-4-2-8-2-12z" fill="#e0e0e0" fill-rule="nonzero"/><path d="m1065 1058-4 4c0-8 2-13-6-9v3c4 4 2 9 3 13l-10-12c-4-4 1-13 2-19 5-23 14 8 16 10 1 4 1 6-1 10zm-5-93c7 33-7 67-14 38 6-9-21-43 14-38zm-3 64c-15 5-8-13-5-13 4 2 7-3 10 2 2 5 0 10-5 11zm8-79-1 12 1-12zm1 67v-1c-4-6-1-12-1-19l-1-28v-21l-1 8c-2 9-19 8-25 4l-1 7 4 29c3 11 6 20 5 31l1 6 1 7-5 14c-1 2-1 3 2 5 5 3 9 7 10 14l2 4c2 4 12-19 13-22 0-11-9-23-4-38z" fill="#e0e0e0" fill-rule="nonzero"/><path d="M1062 953c-5 2-8 3-13 3l-12-2c8 6 19 6 25-1zM78 462c9-4 7 11 8 18 4 7-71 23-75 8l-4-27c19 3 53 10 71 1zm-65-33c0-5 1-6 6-4 31 11 31 10 59 0l4 1v3l-5 5c-23 10-38 6-60 0-3 0-4-2-4-5zm4-14c12-4 54-6 65 1 2 2 2 3 0 4-40 9-25 13-65 0l-2-2 2-3zm60 156-36 3H27c-3 0-4-2-4-4-2-19-13-34 7-30 72-16 47 24 47 31zM3 464l2 9 4 24 10 75c0 3 0 5 2 5l24 2 34-2c11 0 13-2 14-13 2-12 1-26 2-40l1-23c1-7-3-52 0-55 2-5 1-7-2-8-4-4-13-11-7-17 2-3 1-5-1-6-4-3-8-5-12-5-24-3-34-7-59 2-2 0-4 4-4 7l-1 7-2 19 8 4c18 8 53 3 71-2 1 0 4-3 5 1 0 1 0 3-3 5-19 11-66 13-87 2l-2-2v4l3 7zm746 54c1 4-2 5-5 5l-49 2c-3 0-3-1-4-3 0-8-1-16-3-23-11-14 62-15 65-11l-4 30zm-70-78c-7-46 73-28 74-22v13c0 8-71 23-74 9zm67-63c8 0 2 6-1 9-11 5-21 6-36 6l-22-4c-3-1-6-5-6-7 0-12 28 7 65-4zm-61-11c18-5 84-1 65 6-14 4-56 14-67-2l2-4zm77 23-5-4c-11-8 5-16-4-19-16-7-65-15-75 4l-1 8c0 11-2 11-12 13l-5 5c4 5 11 21 13 28l4 24 9 76c0 3 1 4 3 4 23 3 35 2 58 1 24-2 16-54 16-76 1-4 3-61-1-64zm11 686-49 2c-2 0-3-1-3-4l-3-21c-5-14 20-7 35-10 5-1 10-3 16-2l3-1c18-4 8 34 1 36zm-60-72c0-4 3-1 4 0l6 35c-6 1-6 1-6-3l-4-32zm20 38c-12 0-19-38-9-41l38-5c8 0 17 46-29 46zm-28-76c22-10 81-12 76 5 1 6 4 17-1 18l-65 9c-8 2-9-26-10-32zm20-50 27-1c7 2 23 3 27 6 7 16-76 1-64 4l-3-2c0-4 12-7 13-7zm65 29c17 1-92 19-83 4-1-4 41-3 43-3 6 0 31-4 40-1zm-3-7c-5-3-6-9-3-13 2-2 1-4-1-6l-12-5-38-2c-8 0-14 2-20 4-11 15 1 21-15 26-2 1-10 5-8 7 2 4 1 10 6 12 13 9 17 97 19 116 0 3 1 4 4 5h57c11 0 13-2 15-13l1-47 1-72c4-6-2-9-6-12zM20 663s-4 0 0 0zm26 50-1-39 1-11c-3-13 10-42-16-45-3-1-8-2-11-1-8 1-11-2-13-9-1-4-4-6-6-7v4l3 3-3-1v2l2 6-1 3H0v2l9-1c4 1 21 1 26 3 16 6 6 29 8 42 0 6-12 6-16 6l-1-5c0-4-2-6-6-5-2 0-3 1-3 4l-1 2c-1 5-1 6-5 7l-11 1v3l11-2c11 0 0 4 9 9 2-8 17-18 23-10v37c0 10-31 10-43 11v3c7-1 46-2 46-12zm297-301 15 9c5 5 7 10 8 17 0 5 1 6 6 2 43-18 48 9 29 35v2c11 0 18-7 28 9 13 44-38 12 0 37-9 10-170 17-180 14-6-1-13-9-13-14-5-23 5-37 29-24v-5c-9-55 4-56 41-37h2c-9-13-1-22 4-32 10-13 13-20 31-13zM229 535c13 10 200 2 204-12 1-2-2-4-4-6-5-2-2-3 0-5 7-9 7-18 0-28-14-29-34 10-15-30 8-18-12-26-27-24l-18 7c-2-11-13-20-20-28l-6-4c-8-5-17-4-25-2-8 4-11 33-28 31-42-7-35 40-56 48-13 4-9 26-18 32-1 10 4 18 13 21zm718-220-1 1 1-1zm-190 9-1-7c2-5 3-11 6-15 5-11 13-8 19-5l5 3v-5c-1-11-2-22 1-34 0-3 2-7 4-10 2-6 7-8 13-5l22 12 2 1 1-1c-9-12 0-22 5-32l6-8c10-9 14-8 25-5l15 10c5 4 6 10 7 16s1 6 6 3c8-5 16-9 25-8l11 4c5 3 7 10 4 16l-10 22-1 2 3 1 2-1c12-3 17-1 23 10s2 19-4 27l-7 2-1 3 3 1h5l6 4-7 4c-6-1-12 3-19 4-14 2-28 2-41 2h-47c-16-1-31 1-47 5-7 1-14 1-21-1-6-2-12-9-13-15zm129-95-3-4 3 4zm47 11-8-6 8 6zm3 11-2 2 2-2zm-4 9 1-2-1 2zm-7 14 6-10-6 10zm18 3h-2 2zm11 25-1 2 1-2zm0-6-1-3 1 3zm-128 42 15 1 46-2 18 1 42-6c3 0 6-4 7-7 2-3-2-5-4-6-4-2-1-4 0-5 7-9 7-19 2-29-6-8-13-12-23-10h-3l9-20c4-8 2-15-5-19-6-5-14-6-21-4l-19 7c0-9-4-14-10-19l-9-9-6-5c-8-4-17-4-25-1-11 3-21 7-24 19-2 3-4 3-6 3-7 0-13 0-19 3a74 74 0 0 0-23 12c-6 4-8 9-5 16l5 14-15 5c-3 1-8 4-8 8l-2 8c-2 3-7 6-4 12 1 3-1 7-2 10-1 10 6 18 13 22 12 7 26 8 41 6 1-3 31-5 35-5zm281-294h-4 4zm-42-30 34 30c6 5 10 4 15-2l22-21c7-2 2-15 0-20h-3l1 16-28 27V0l-4 1v3l-4-3h-27l-2 7-4 6zm-56 27c4 2 8 1 12-1 14-5 25-20 36-16l1-8-1-3-3-6-6-6h-3l5 7c11 12-20 26-30 29l-2-36h-36l-8 18c-3 12 23 17 35 22zm105 418v-10l5 10 14 44 10 46-1 4-28 27V459zm7 120 23-22c4-1 4-4 3-6l-6-32-12-41-13-36-3-4-5 4-4 14-4 9-11 37c-3 14-7 28-13 42l-3 7 34 30c5 3 14 3 14-2zm-93-6-2-17-1-46v-25l2-1c2 7 7 13 10 21 5 14 11 28 20 39 11 13-21 27-29 29zm27-13 2-1-2 1zm6-17c-9-10-15-23-21-36l-12-28-7-12c-2 3-5 6-6 10l-21 50-12 28c-1 6-1 6 3 9l32 14c3 2 8 1 12-1 9-4 18-9 26-16 9-4 12-5 6-18z" fill="#e0e0e0" fill-rule="nonzero"/><path d="M1115 580h-4m-54-21-2 1m-39 1-3-1m-23-19 3-6m21-50 2-2m83 7-3-1" fill="none" stroke="#e0e0e0" stroke-miterlimit="23" stroke-width="3"/><path d="M377 1147c-3-17-18-32-35-32h-23v-1h-14c-9 0-15 4-20 8-2 1-3 4-3 6l3 12c1 4 2 4 4 2l6-3a37 37 0 0 1 43 9c5 5 3 12-4 15-8 4-15 5-23 3-2 0-5 0-4 3l2 12h6l-2-6c0-3 0-5 4-4 8 0 15-3 21-5 6-3 8-12 5-17-4-5-9-10-13-12-11-6-22-7-34-4l-1 1c-3 0-6 4-8 0s0-9 2-12c7-2 12-5 19-4h8v1h27c15 0 32 18 29 37 0 7-6 12-11 17-8 5-17 4-25 5-6 1-8 1-9 3h24c4-1 9-3 13-6 9-7 15-17 13-28zm-321 0-1-5c-3-2-2-3-3-5l-5-25c-5-21-16-29-34-32-4-2-10-1-13 2v5c3-4 9-4 14-4 15 4 25 12 28 28l5 25c1 1-1 4-1 4-2 0-5 0-7-2l-1-6-5-23c-2-7-4-12-10-16-3-2-8-4-12-3-5 1-8 2-10 5l-1 6v11l3-10c2-4 4-8 8-8 7 0 12 2 14 8 5 9 6 21 8 32 1 4-1 5-3 4-9-3-18-2-26-1H0v3l15-1 12 1 19 4c3 0 6 2 5 6l1 7 2 24h4l-1-22-1-12z" fill="#e0e0e0" fill-rule="nonzero"/><path d="M21 1155c-11 0-16 8-10 18v8h4l1-3c2-7-14-19 6-19 6 0 1 16 2 22h6c0-9 3-26-9-26zm476-26 3-1-3 1zm5-3c-48 0-28 55-49 39l-1-2c-3-1-4-1-5 2l-3 4-3 1c-6-2-12 6-18 1l-3 2c-2 4-4 2-7 0-3-4-4-3-6 1l-1 3-1 4h5v-4l5 2c3 2 5 3 6-1 2-2 4-4 7-1 1 1 4 1 6-1 3-3 5-2 7 0s4 1 5-1l1-3c2-4 2-4 7-2l3 2c6 4 7 3 9-4 7-21 7-34 32-38 29 0 50 21 38 51h5l1-2c7-29-10-53-40-53z" fill="#e0e0e0" fill-rule="nonzero"/><path d="m525 1171-6 4-3-8c-1-2 0-5 1-7h5c3 1 5 8 2 11zm-3-15c-5-1-8 2-10 6-2 6 2 14 6 15 5 1 10-1 11-7 3-7 0-12-7-14zM173 496l5 50c1 6-2 11-3 16l-2 2-3-2c-1-2-3-6-2-9 1-5-2-7-6-8l-4-2 4-3-1-20c-3-3-1-5 1-6 2-2 1-4-1-6l-3-1c-4-3-4-3-1-7l3-2c4-6 3-7-3-10-72-36-14-90 23-69 20 15 33 65-1 72-5 0-6 3-6 5zm13-2c33-22 12-73-8-79-42-21-91 42-29 73 22 10-11 8 6 22l1 3c-5 8 4 22-2 28-3 2-2 4 1 6l4 2c3 1 4 3 4 6l3 11c1 3 3 4 6 3 6 0 7-2 9-8 3-16-7-60 5-67z" fill="#e0e0e0" fill-rule="nonzero"/><path d="m163 438-7-2 1-5c2-3 8-4 11-2l3 7-8 2zm5-13c-7-3-13-1-15 6-2 4 1 8 5 10 5 3 14 0 15-3 2-5 0-10-5-13z" fill="#e0e0e0" fill-rule="nonzero"/><path d="M122 448v3" fill="none" stroke="#e0e0e0" stroke-miterlimit="23" stroke-width="3"/><path d="M158 1133c-1 4-4 7-8 6-8-8 8-14 8-6zm88 40 7 6c2 1 3 2 4 0l-1-2-8-7v-2c2-4 11 5 14 7 1 1 4 2 6 0-1-1-25-20-7-11 2 2 3 4 6 4 1 1 2 5 6 4l-5-5c-1-2-3-4-2-7l-1-10-2-3-1 3v6c0 9-4 5-6-3l-1-3-2 3c0 8 2 10-6 13v-11l-1-2v1-2l-2 3v11c0 2-1 2-3 3-5 3-16 11-20 5-10-15-37-35-56-35-3-1-4-2-4-6v-3c1-3 0-4-4-4-7 0-14-3-13 7l1 3-1 3c-25 11-32 13-45 40l-1 2h3c15-29 20-33 51-39 25-5 52 14 67 34 2 2 2 2-1 3l-3 2h3l2-2-2 2h8c0-4 16-12 20-8z" fill="#e0e0e0" fill-rule="nonzero"/><path d="m154 1178-10 1-5 2h32c-5-3-10-4-17-3z" fill="#e0e0e0" fill-rule="nonzero"/><path d="M161 1155h-14c-4 0-9 3-12 5-9 7-15 13-19 21h3c4-6 8-13 16-17 2-3 6-4 10-6 1 0 4-2 5 1h4l10-2c6 0 10 2 14 6l16 18h3l-17-21c-6-4-11-7-19-5zm624-32-3 1h-40c-2 0-2-2-3-3 0-2 1-2 3-2 9-2 19-3 28-2l11 1c2 0 5 3 4 5zm31 44-2-22v-15c0-6-1-6-6-6h-3l-13-1c-2 0-4-1-5-3 0-4-3-5-6-5l-11-1c-11-1-21 0-31 2-2 0-2 1-3 3v2c1 3-1 3-2 4l-12 1-13 1c-4 0-4 1-4 3v45l1 6h3v-4l8 4h6c-5-2-10-4-14-8l-1-2c2-5 0-10 0-14 0-7-2-12-1-18l-1-7c0-2 1-2 3-2 15-2 31-4 47-4l28 1 6-1h4l14 1c2 1 3 1 3 3l1 22v13c0 4-2 8-6 9-11 3-22 7-34 6-4 0-4 0-5-4-2-6-4-8-10-7-3 0-3 1-3 4l-1 5-3 2-7 1h15c0-2-3-4-1-6l1-4 5 2 2 8h27l20-6 1 6h3v-14zM654 822l1 34c2 10-26 19-39 16-3-1-6-2-6-5-6-17-14-1-18 5-47 4-42-9-42-48-4-4 104-10 104-2zm-26-7c-6 2-46 3-46-2-3-7 50-8 46 2zm-22 50 2 12c-6 2-5 1-8-4-1-4 0-9 6-8zm48 38c-11 14-69 9-88 9-14 0-14-33-14-43 21 10 17 8 41 5 4 0 6 1 6 5 2 7 11 8 12-4 16 0 29-3 44-9 2 13 2 25-1 37zm-107-81 1 45c2 13 1 45 14 47 14 5 87 4 94-7l2-49-1-36c0-6-1-6-6-6-5-1-20 1-22-5 0-8-49-7-49-1 4 15-34-2-33 12z" fill="#e0e0e0" fill-rule="nonzero"/><path d="M638 913h-3" fill="none" stroke="#e0e0e0" stroke-miterlimit="23" stroke-width="3"/><path d="M102 654c18 9 45 4 45 9v3l6 1 6-1c4 0 4 0 3-3l-1-3c15 0 30-4 43-9 2 12 0 25-1 37l-3 5c-16 5-84 11-94-2-5-10-4-26-4-37zm53-4 3 12-1 2h-4c-2 0-2-2-4-4-1 1-2-18 6-10zm-56-41c0-2 1-3 2-3 27-3 49-3 76-3l5-1c5 0 21 0 21 5l2 34c0 13-44 23-46 11-3-8-13-13-13 3-14 5-33 5-45-6l-1-2-1-38zm78-10-3 1h-40c-2 0-2-1-2-2-3-7 50-8 45 1zm-66 100c15 4 87 5 94-7 2-3 2-7 3-10v-39l-2-36c0-14-26-1-26-11-3-10-51-7-51-1v3c2 5-23 5-28 5-3 0-5 1-5 4 1 14 0 31 2 45 2 13-1 44 13 47z" fill="#e0e0e0" fill-rule="nonzero"/><path d="M187 698h-3" fill="none" stroke="#e0e0e0" stroke-miterlimit="23" stroke-width="3"/><path d="m1022 191 29 1 6-1h3l15 1c1 0 2 0 2 3l2 22v13c0 4-3 8-6 9-11 3-23 7-34 7-5-1-5-1-6-6-2-5-4-7-10-6-3 0-3 1-3 4v5l-4 2-20 2c-8 0-15-5-21-9l-1-2c2-6 1-10 0-15v-18l-1-6c0-2 1-3 2-3l47-3zm-14-8c10-1 19-2 29-1h10c2 0 5 4 4 6l-3 1h-39c-3 0-3-2-3-3-1-2 1-3 2-3zm15 56 1-2 5 1 3 12-1 2h-4c-2 0-2-2-4-3 4-4-2-6 0-10zm56 30-2 8-3 4c-6 2-10 4-16 4l-44 1h-24c-5 0-7-3-9-8-4-5-4-11-5-18v-18l11 6c3 1 8 2 12 1l18-1c3-1 4-1 4 3v4l6 1 6-1c4-1 4-1 3-5l-1-1c15 0 30-4 43-10l1 7v23zm-21 18h3-3zm-58-97-12 1-13 1c-3 0-4 0-4 3v39l1 6 2 14c0 8 0 16 2 24 2 6 5 9 9 9 9 2 18 3 27 1l14 1h7l33-2c6 0 10-2 13-7 2-3 2-6 3-10v-39l-2-21v-15c0-6 0-6-5-6h-4l-12-1c-3 0-5-1-5-4-1-3-4-4-7-4l-11-1c-10-1-20 0-30 2-2 0-3 1-3 2v3c1 3-1 3-3 4z" fill="#e0e0e0" fill-rule="nonzero"/><path d="M1061 287h-3" fill="none" stroke="#e0e0e0" stroke-miterlimit="23" stroke-width="3"/><path d="M927 1129c0-4-14-7-17-8-8-2-30 51-34 60h4c13-26 16-58 42-51l-24 51h15c11-25 14-24 14-52zm-77-5c8-14 32-4 30 9 1 8-36 46-30-9zm-2-3c-5 8-10 22-4 31l5 8c3 8 28 3 32-4 1-4 3-7 1-11-1-4 3-8 3-13 0-14-25-26-37-11z" fill="#e0e0e0" fill-rule="nonzero"/><path d="M857 1135c-1-4 12-10 14-4 4 11-10 5-14 4zm10-10c-10 0-13 3-13 9 0 5 3 8 8 8 7 1 12-3 12-9s-1-8-7-8zm-238 42c-11-2-22 1-29 10l-2 4h3v-1c8-10 18-12 29-11l19 6 10 6h6c-6-5-12-9-18-11l-18-3zm492-45-13-36-4-3-3 3-6 14-24 81h34v-88l7 10c3 15 7 29 12 44 4 11 7 22 9 34h3c-4-20-9-39-15-59zm-102 1-5-12c-3 3-6 6-6 10l-22 50-4 10h36l-1-27 2-26c2 7 7 13 9 21 4 11 10 22 17 32h3c-6-9-11-20-16-30l-13-28zM637 204c18-18 56 9 68 26 58 128-197 43-68-26zm-8-14c-4-7 14-24 27-5-6 2-23 10-27 5zm105 49c-1 2-4 2-6 0-4-8-13-17-4-19 10 0 15 12 10 19zm-135 47 10-4c3-1 6-1 9 3 13 15 39 17 39 23l-1 11 2 4 3-2c2-4 7-16 12-16 30-1 52-32 42-59-2-5 0-7 2-9 4-4 6-3 7 2 0 3 2 5 5 5 5 1 7-2 9-5 3-6 0-13 5-19-4 0-6 2-9 0-7-4-14-4-20 0l4 9c2 4-3 4-4 6-3 2-3-1-4-2-5-12-14-20-24-26l3-15 4 1 7 5h3l-1-3-14-9-10-3 3 3c18 20-35 8-31 9-2 2-3 0-1-3 9-5 11 4 11-3l-1-6c-2-3-6-8-11-9-3-1-6-2-7-6l-2-3-1 3c-1 4-3 5-7 8l-2 3c-3 3-4 11-1 14 2 6 14-3 16 1l-5 5-2 2c-61 25-43 68-34 72l-7 8v4l3 1z" fill="#e0e0e0" fill-rule="nonzero"/><path d="m647 254-6 3 6-3zm7-4-2 1 2-1zm8-4 2 5h-4v-5h2zm-26 17 2-4 9-4c4-2 9-6 13 0h3l3 3 10 20c1 2 1 4 2 3 3-1 2-3 0-4-6-9-8-19-11-30l-4-6c-2 0-5 2-6 4-2 4-6 4-9 6l-20 11-4 3-1 2c3 1 11-1 13-4zm54 5 12 8h3l-1-3c-4-5-9-6-17-10l3 5zm-45 12-6 12v2l2-1 4-6 3-5v-3l-3 1zm-21-49-2-3-6-3-4 2 3 2 5 2h4zm57-15v-3l-3 1-2 3-1 3-1 4 3-2 4-6zM242 813l-7-8c-12-18 3-66 28-69 25-2 57 2 65 32l2 11c0 45-56 54-88 34zm-15-65c-3-2-4-8-3-11 19-33 21 20 3 11zm86-18c-8-11 17-12 17 2 0 3-3 5-5 3l-12-5zm3 83c7-5 10-11 13-17 8-18 2-39-11-48-3-3-3-6-3-9 2-4 3-5 6-1 3 2 4 3 7 1 4-2 5-5 5-9-1-6-8-9-6-16-3 1-4 5-8 5-6-1-12 3-14 10l8 4c3 2 0 4-1 7-1 1-25-8-35-8h-3l-1-12c9-3 28-4-5-4-4 1-13 2-4 4 11 0 6 12 3 12-12 2-20 9-25 10v-2c1-2 2-5 6-5 3 1 2-1 1-3l-3-3c-5-2-9-4-14-2s-6-1-10-3l-1 3v10l-1 4c0 3 3 10 7 10 5 3 8-9 12-7l-1 8c-5 7-8 13-9 20-3 8-4 16-1 24 3 9 7 18 17 22 3 1 4 3 3 5l-1 10 2 3 2-1c4-5 7-12 14-10 37 11 34-17 46 7 1 1 3 2 4 1l1-3-1-13 1-4z" fill="#e0e0e0" fill-rule="nonzero"/><path d="m280 779-3-4 1-2 6 4-4 2zm27 10c-10-4-17-10-24-17-5-2-11-2-8 4 0 3-12 23-14 27l-1 5c8 3 8-31 22-27l3-1h2l19 11c0 1 1 2 2 1 2-3 0-3-1-3zm17-13 1-1-1-2c-6-2-10 0-18 1l5 2h13zm-37 38v-6l-2-2-1 2 2 12 1-6zm-55-30 8-1 3-2-4-2c-5 2-5 0-7 5zm45-33c2-3 3-8 0-11-3 5-3 7 0 11zM30 931l-4-4c10-8 24-8 24 7 0 9-16-2-20-3zm-2 122 3 1c2 0 3-1 3-3 0-5-3-18 1-21 23-14 25-59 1-78-4-3-4-6-3-10 2-5 3-6 7-2 3 2 6 3 9 1 4-1 5-5 4-10-1-7-7-11-6-19-11 5-22 8-27 18l10 4c4 4 0 6-1 8-1 4-3 2-4 1-8-4-16-7-25-8v3l18 6c44 19 43 77 0 93l-18 6v2c5 0 10-1 15-4 6-2 10 8 13 12z" fill="#e0e0e0" fill-rule="nonzero"/><path d="M20 1005c2 1 3 2 5 0s0-3-2-4c-9-3-16-9-23-14v4l20 14zm23-18 2-2-2-2c-6-3-13-1-20 1l5 3h15zm1120-668c-1 0-3 0-3 4l8 39c0 2 2 3 3 1 3-2 5-4 9-4h1v-25c-2 0-2 3-1 9v11l-7 2-2-2-2-13-3-13c-1-3 0-4 4-4l11-1v-4c-6 2-11 2-18 0zm-26-43-2 5c0 5 2 9 3 13 1 3 2 3 4 2 11-5 21-6 31-6l8 3v-4c-6-2-39 0-40-2-3-3-2-9 2-11 14-7 24-4 38-4v-4c-17 0-26-5-44 8zm34 103c0 2 4 5 7 5l3-1v-13h-3c-4 0-7 4-7 9zM152 818v6l-7 1-4-15c-2-6-7-17 1-17 26 3 38-22 12-34 3-1-34-1-39-14 64-32 124 47 46 56-14 1-11 5-9 17zm-43-73c-3 3 0 25 5 20 10-8 19-9 31-5 32 7 22 36-10 29-1-1-4 0-3 2l8 40c0 6 16 0 16-13l-1-12 13-1c82-9-9-110-59-60zm41 93c-4 0-8 6-8 9 1 3 5 7 8 7 4-1 7-6 8-10 0-3-4-6-8-6zm865-131-6 1-2-1c-1-5-10-31-2-31 7 1 14-2 22-4 22-11-17-45-42-33l-3 1c-1 0-4 3-6 0-3-4-2-10 2-12 53-26 137 46 46 56-15 2-9 8-9 23zm-43-79-1 5 2 14c1 2 2 3 5 1l4-4c30-12 61 17 40 25-7 4-15 5-23 3-2-1-4 0-4 3l8 39c0 3 2 4 4 2 2-3 4-4 8-4 16 0-11-21 16-25 98-1-6-101-59-59zm41 94c-4 0-7 5-7 9 0 2 4 6 7 6 4-1 8-5 8-10 0-3-3-5-8-5zm163-632-1 2c-1 4-3 5-6 5-5-1-7 0-8 5-16 25-50 92-57 115v2c2 2 0 5 0 8v3c6 2-3 8 7 11 18 4 50 3 70 2v-23c-117 6-63-10-19-116 1-4 4-6 8-5 1 0 3 0 4 3l5 3h2v-2c-2-2-1-3 0-3v-3c-3 0-3-2-2-4l2-3v-5l-5 5z" fill="#e0e0e0" fill-rule="nonzero"/><path d="m1173 153 2 1 5-1 1-1v-4c-2 2-4 3-7 3l-1 2zm6-26 2-1v-5l-3 3 1 3zM391 966s-76-57-84-65c-8-5 1-10 6-12l106-54c4-5 12 1 10 5 3 16 11-10 11 10 0 23 4 1 5 0 2 2 10 6 8 9v8c-3 2 12-15 14 4l-2 3c-2 0 11-15 13 6v5l5-5c2 1 8 5 6 8l2 8 1-3c0-1 0-4 2-4s4 2 5 4l8 9-116 64zm-87-77-2 1-8 15c-3 2-2 5 0 7 25 26 60 47 89 69 18 9 107-58 130-72 5-4 6-10 2-16-13-18-52-37-54-46-8-11-36-12-33-15-3-3-7-3-10 0l-114 57z" fill="#e0e0e0" fill-rule="nonzero"/><path d="m425 882 4 5c2 3 1 5-1 6-3 2-10 2-14 0l-3-1 1 3 4 2 13-1c5-2 6-5 3-10l-4-5c-2-3-1-5 1-6l7-1 8 5 13 9h2l-1-4-6-4v-1l-13-7c-5-2-9-1-12 1-4 2-5 5-2 9zm207-243c2-3 4-5 8-5 21 15 41 0 41 0h19c11-2-4 3 17 0 0 0 5 4 27 4 3 1 5 5 3 8l-31 58-26 56c-1 2-2 2-4 2-131-25-133 42-54-123zm89 88c8-13 32-69 36-72v-4l-4-4v2c-3-7-53 118-57 105l49-98c15-33 6-16-7-34l-5 2c-3 1-5 2-8 0-4-6-11 2-18 0l-2-1c-7 3-13 3-19 2-6 0-6 3-12-2-4-4-7-4-12 0-5 5-8-14-15 2l-1 2c-1 3-4 5-7 4-5 0-7 2-9 6-18 44-36 75-57 117l3 16c0 4 2 6 5 7l9 1 95-1h9c3 0 21-42 27-50z" fill="#e0e0e0" fill-rule="nonzero"/><path d="m667 673 6 2c3 0 4 2 3 5-2 4-8 7-11 8h-3l2 3h4l10-9c3-5 2-8-3-10l-8-2c-2-1-3-3-1-5l4-5 9-2h16l2-2-2-2-9 1v-1l-15 2c-4 1-7 4-8 8-2 4-1 7 4 9z" fill="#e0e0e0" fill-rule="nonzero"/><path d="m649 687 9-5c4-5 4-7-3-11l3-5 4-9c0-1 0-4-3-5-1-2-4-2-6 1l-5 6v3l3-1 4-6h3v2l-4 9c-5 8-5 8 4 10l-2 3c-4 3-7 6-11 6l-2 2 2 2 4-2zm85 15 11-23-15 30 4-7zm433-671a37 37 0 0 0 14 2v-3l-9-1c-7-2-8-3-8-9l-2-19h-2l1 20c0 8 0 9 6 10zm-29 765 33 22c4 3 4 5 1 8l-26 27c-41 56-11-54-18-57 2 0 7-2 10 0zm-2-15c-7 0-12 4-12 11 0 20-11 86 9 86l48 2v-4c-15 0-27-3-41-1-4 0-5-2-3-5l16-17 20-22c3-3 5-4 8-4v-8c-7-3-46-27-46-32l46-1v-4l-45-1zM832 647c2 0 5 4 6 6l21 35c7 9-49 25-59 29l-3 1c0-15 35-71 35-71zm6-3c36 15 73 29 108 45l18 11c3 2 3 3 0 4l-7 3c-18 2-35 8-52 15-8 2-11 0-17-5-21-21-35-46-50-72v-1zm100 127-5-20-7-19-2-7c-1-3-1-6 3-7l35-7 1 2-25 58zm-7 5c-45-15-74-23-115-47l-9-4c-4-2-4-3 0-5 17-7 52-29 64-16l19 22c3 4 6 6 12 2l11-5c2-1 4-1 6 3 7 15 9 31 15 46l-3 4zm-131-50 138 59 4-1 2-5 9-29 10-26c2-6 4-11 8-16 4-3 3-7-1-10l-16-9c-32-19-70-27-111-50-2 0-9 1-13 4-20 18-53 82-31 83h1zm-503-67h-9c-4 0-5-2-2-4l14-18c11-11 23-32 37-23l26 11c5 2 9 2 11-3 2-4 6-6 8-9s5-3 8 0c12 10 20 24 32 35l1 3-3 2-56 7h-14c-17 2-35 1-53-1zm-18-4-3 1-2-3 1-6h-1l3-35-1-17v-9c0-3-2-7 2-8 2-1 6 1 8 2l33 23c5 3 5 5 1 7l-26 28-15 17zm36-84c17 0 33 0 50-2 11-2 22-1 34-1l21 2c2 0 3 1 1 4l-5 6c-15 10-29 22-42 35-5 5-9 6-16 3-28-10-52-28-75-45l-1-2h33zm113 74-3 1-13-16-14-15-5-5c-2-2-3-5 0-8l28-22 3 1 4 64zm-72 19 24-2 14-2c12 0 25-5 37-2l3-2v-6l-4-31-1-28c-1-5-2-11 0-17 2-4 0-7-5-8l-18-2c-14-1-26-2-39 0-27 5-55 4-82 2-8 0-12 4-13 12v21l-1 50h-1v2c0 11 0 12 11 13h75zm817-220c2 4 1 11 7 13h1v-4c-2-1-3-3-3-5-1-2 0-3 3-2v-8h-3l-5 6zm-36 180c0-4-1-7 3-10 0 4-1 7-3 10zm-16 53 1 54-7 3h-1l-19-3-3 2c-3-2-2-5-1-8 3-30 5-57 11-86 0-2 1-4 3-5 2-3 4-3 7 0 10 18 9 19 9 43zm36 3c2 0 3 1 3 4 0 1-3 4-5 4-3 0-3-3-3-4 0-3 1-4 5-4zm-7-75c-8 3-17 6-17 17 0 3-1 3-4 3l-20 3c-4 1-9 4-10 9-4 29-8 57-10 86-2 6-1 10 0 15l1 3 3-2c5-8 22 0 24-2l5-3 2-2c2-16-5-41 4-52 1 2 2 2 4 2h14c3 0 4 1 4 2 0 2 2 9 4 7l8-7c0-4 1-5 4-5l6-1 9-1v-3l-18 2c-2 1-3 0-2-2v-1l-2-6h-8v2h2c5 1 7 3 5 6-1 2-3 2-5 3-10-15 10 4-21 0-9-8-1-24-15-41l-5-7 16-2c3 0 5-2 9-1 7 1 13-3 20-3l24-4v-2h-1l-21 2-11 2-6 1c0-6 2-10 8-11l31-3v-2l-7-1-15 2-7 1v-2l9-2a253 253 0 0 1 20 0v-4h-3c-9 0-19 0-28 4zm-25 130-3 3h3c9-5 41-13 51-13h5v-3c-15 2-42 6-56 13zm-287 77c0 9-86 14-92 14l-3-10c-3-15-3-18-10-31l-6-7 25-4c3 1 47-6 53-7l19 1c6 0 12 2 14 10 4 16 0 19 0 34zm-132 70c-3-6 9-87 10-95l3-6c14-13 17 41 17 45 1 94 0 38-30 56zm58-122 27-3c5-1 7 2 7 5-3 6-68 9-34-2zm71 108c13-2 6-33 6-46 1-16 3-32-1-47-2-6-7-9-13-10l-12-1c-7 1-12-2-13-8-1-5-4-7-9-7-10 0-19 0-28 3-28 10 2 16-41 24-5 1-9 3-9 8-6 29-11 70-11 101l1 3 2-2c6-7 23 1 25-2l5-2 3-14-1-34v-14l4 7c0 2 1 3 3 2 20 0 92-11 92-7 0 11 6 43-5 43-17 0-85 9-95 20 2 1 70-20 87-17h10zm341 218c-17 20-12 47-14 49-3 4-3 6-3 9l1 37h2v-3l1-32c0-7 12-5 18-6v-3c-3 0-2-9-2-11-1-5 0-9 2-13v-12c-20 79-9 0 0-14v-5l-5 4zm-68-134c-11-5 0-29 20-19-2 3-15 22-20 19zm56-19-1-13 3-2c3 0 15 1 10-4h-18c-27 0 2 3 2 13v3c0 2-2 4-5 4-17 0-21 14-30 8 1 0 21-12 5-12-5-3-10-5-16-3-30 15 3-20-13 12l-1 4c-1 5 4 12 8 14 6 4 10-12 15-9 2 2-39 72 7 88 3 2 3 4 3 7l-1 11 1 4 4-2c5-5 9-13 16-11 9 2 18 2 28 0v-2c-82 11-98-105 0-105v-3l-17-2z" fill="#e0e0e0" fill-rule="nonzero"/><path d="m1172 989-4-4 2-2 6 5-4 1zm-8 5 2-2-2 2zm-6 12 3-7-3 7zm10-27c-2 1-4 4-3 7 0 4-3 7-4 11l-14 27 1 2c4 0 9-8 9-11v-5l5-10c2-3 4-10 11-8 1 1 3-1 4-1h4v-4l-6-5c-2-2-5-4-7-3zm11 60 1-1v-14l-2-2-2 3 1 13c0 1 1 2 2 1zm-64-47-1 4 3 1 7-2 3-2-4-3-8 2zm53-50-2 3-1 5 1 3 2 4 2-4v-8l-2-3zM249 72c12-9 87-16 91 6 3 27 11 102 2 133-1 4-5 3-7 6-8 7-58 5-70 3-16-3-16-120-18-140-1-3 0-6 2-8zm7 144c1 4 3 6 8 8 24 5 44 2 57 0 45-6 29-49 23-145-1-7-6-12-11-14-19-4-69-7-84 3-5 4-6 8-5 13 7 44 4 87 12 135z" fill="#e0e0e0" fill-rule="nonzero"/><path d="m327 87 2 12c0 10-64 7-66 3l-3-16c-2-12 65-14 67 1zm-63 19c12 2 55 3 65 0 3-1 4-3 3-6l-2-15c0-19-72-8-72-5-1 9 2 17 3 26h3zm4 100c0-2 3-4 7-4 2 0 3 3 3 6-2 11-13 2-10-2zm-3-22c8-3 8-2 10 6v3c-9 0-9 0-10-9zm12 17v-2c2-4 0-7 0-11-1-10-2-10-11-7h-1c-3 1-4 2-3 5l1 10c0 2 1 3 3 2 2-2 5-1 10 1l1-1-1 1-1 1 1-1-6 2c-4 0-5 3-4 8 2 10 21 6 14-7l-3-1zm10-39c4-1 6 1 6 5l-5 1c-1 0-4 1-5-2-2-3-1-4 4-4zm-16 8c-4 0-4-1-4-6 0-2 1-4 4-4s5 3 5 7c0 3 0 3-5 3zm8-3-2-8c-1-2-3-3-6-2l-8 3v1l1 12 3 1c4-2 9 0 13-1 5-2 9-1 14-1 2 0 2-1 2-3v-7c-1-3-2-4-5-4l-3 1c-8 0-8 0-9 8zm33 46c4-2-11-14 18-13 2 0 4 1 3 3v4c1 8-15 6-21 6zm23-16-4-1c-22 2-25-3-24 17 1 4 0 4 4 4 7-1 24 1 24-8v-4c0-3 3-6 0-8zm-32-36c19 0 12 7 7 7-7 1-8 0-7-7zm16 10-1-6c-2-8-2-8-11-7-8 0-8 0-7 8 0 5 0 5 5 5h14zm-4-27v4h-2c-7 0-7 0-7-6 0-3 0-4 2-4 7 0 7-1 7 6zm0 6h1-1zm-5-15h-2c-5 0-6 1-5 7v5c1 3 3 5 5 5l7-1c4 0 4 0 4-3-2-8 0-14-9-13zm-46 9v-5h-3l2 10c0 2 1 3 3 3h13l1-4-1-6c-2-7-2-7-8-7-2 0-4-1-7 2h4c21 6-2 24-4 7zm53 41-1 3c-29 4 1-16 1-3zm-7 7 9-1c2-1 3-2 2-4-1-6-4-9-11-8h-4c-3 0-4 0-4 4v3c0 5 1 6 4 6h4zm25-27c-1 3-1 4-3 3h-7v-7l1-1 7 1c2 1 2 2 2 4zm-4-7-6-1c-2-1-4 1-4 3l2 11 7 1 1 1c5 0 7-1 7-7s-1-7-7-8zm-33 31c-1-7-2-11-10-11-1 0-3-1-4 2l1-1-1 1 7 2c4 0 3 5 3 8l-9 1-2-3v-7h-2v11l3 2 11-1c1 0 3-1 3-4zm-11-48c0-3 3-2 5-2 2-1 4 2 3 5 0 3-1 4-5 4-2 0-4-4-3-7zm11 4-1-6-2-4c-4 1-9 0-11 3-3 4 1 12 4 13 4 2 10-1 10-6zm-2 63-1 1c-5 1-7-1-7-6l-1-2 3-1h6v8zm4-7c-1-4-2-5-6-5l-3 1c-4-1-4 1-4 4-1 1-2 9 0 10h9l4-1v-9zm33-62c2 2 1 5 1 7v3c-9 4-11-14-1-10zm-10-1 1 4c0 7-2 9 6 11l5-1 3-3-2-10-1-2-7-1c-2 0-3 0-5 2zm-3-16c0-4 10-5 11 3-5 1-11 4-11-3zm9-5-5-1c-5 0-7 2-7 6 2 11 21 12 16-2 0-1-2-3-4-3zm3 70c-5 0-5 0-5-4 0-1 0-3 3-3 4 1 5 2 5 5s-2 2-3 2zm2-10c-8-1-9 1-9 8v2c0 3 0 4 3 4h11v-6c0-3-4-7-5-8zm-25-54c-4 2-5 2-8-2 2-1 10-2 8 2zm-5-6c-6 0-6 0-6 6v1c0 2 2 3 5 3l8 2c3 1 4 0 4-3-1-6-4-9-11-9zm667-1 14-5h3c4 4 9 1 13 0l9-3c5-2 9-2 9-8 0-2 1-3 2-3l11-1 2 1c4 6 4 12 4 19l-7 5-7 6-22 10-5 1c-7-2-16-2-22-6l-7-7c-4-5-3-6 3-9zm20-10c2-2 3-7 8-4l1-2-1 2 2-2c4-3 8-2 12-1 2 1 2 2 1 4l-2 1-19 6-3-2 1-2zm39-22c-4-6-11-10-19-12l13-4 16-2c7 0 14-1 19 2 11 3 19 10 22 22 3 8-1 11-7 14l-18 2c-6 1-10 3-16 9l-1-12c-2-6-5-14-9-19zm-8 46 2-1-2 1zm54-14-8 3c-9 3-18 7-25 14-8 8-19 11-30 15-10 4-19 2-28-4l-8-5-7-4 1-2 4 2c10 6 20 7 32 4l3-1c9-7 19-10 28-18l10-7 16-5c7-1 12-2 18-5 2 6 0 11-6 13zm-119-6 2 5c0 5 3 10 4 14 2 6 7 10 12 13l13 7c6 3 12 5 19 3l18-5c4-2 10-3 13-7 11-9 23-16 37-20 7-2 11-7 11-14l-2-19c-2-7-8-10-11-15-7-9-17-10-27-10l-33 6c-4 1-8 3-11 7l2-1-2 1 17 3c6 2 9 7 11 13l-14 6-3-1c-7-1-13 0-19 3l-4 4c-2 5-8 6-12 8l-12 5-4-1c-3-7-4-14 0-21 2-5 6-6 10-7l28-9s2 0 1-3l-3 1-27 8-9 4c-5 7-7 14-5 22zm-822 71h2c5 3 9 1 14-1l9-3c4-1 27-35 27 7 0 3-4 5-6 7-40 26-89 7-46-10zm8-2-3-1c4-12 52-13 3 1zm18-37c12-4 36-10 48-6 51 34-20 47-19 47-2-18-9-37-29-41zm2 75c-56 8 38-33 24-27 18-14 28-9 44-18 5 17-61 43-68 45zm-38-6c9 6 20 14 31 10 13-3 80-32 80-47 0-49-40-44-73-36l-11 6 16 4c33 10-23 20-29 24-2 6-25 16-27 12-18-35 43-32 39-40-18 5-51 8-45 35l2 5c-3 4 10 24 17 27zm1008 157c3 3 2 4 0 7-24 18-42 37-64 55l-5-27c0-30-88 16-92-15l-1-27c0-9 71-9 78-9 5 0 9-1 13 3 1 3 3 1 4-1l-1-10-1-19 18 13c16 10 36 19 51 30zm-74-39 2 14c0 8-43 6-53 8-8 0-38 3-39-5l-3-1-1 4 3 30v12c0 24 76-4 85 9 4 4 8 9 8 16l3 14c1 6 5 7 9 3 23-19 40-40 65-57 5-4 5-5 0-10-6 0-92-67-79-37zm-82 495c3 3-78 58-88 66l-3 1c-9-5-23-7-32-13l123-54zm13 10-34 99c-4 11-6 13-13 9-14-8-25-25-37-37l9-5c21-15 21-5 75-66zm-66 40 56-43c4 4-62 63-72 68-44 25 12-24 16-25zm-41 34c1 8 8 37 8 44 0 4 2 6 5 6 6-3 28-18 32-18 11 6 16 11 24 19l4-9c16-42 27-76 38-119v-8c-3-13-3-13-13-7l-29 13c-38 16-71 29-106 48v5c14 7 35 8 37 26zm-41-490-14 11c-1 1-3 2-4 1-7-4-22-6-31-12 83-37 204-101 49 0zm86-45c-3 17-31 116-46 109-15-8-25-25-36-37 28-16 57-49 80-73l2 1zm-66 40 57-41c3 1-12 13-44 44-8 9-18 17-28 22-48 24 15-28 15-25zm-54 18c8 2 13 9 13 17 3 15 5 31 9 45 0 8 9 3 13 2 4-3 20-16 24-15 6 3 11 7 17 12l11-3c15-41 27-76 38-118 0-15 2-22-14-16-10 5-18 10-29 14-38 16-69 29-105 49l-1 3c10 6 12 6 24 10zM410 74c14 27 30 54 47 80l8 17c44 27-32-82-55-97zm-16 121c8-1 50-11 43-26-11-15-36-93-40-91 1 1-24 119-3 117zm45-27 2 3-2-3zm19 5-52-93c2 13 28 78 37 91-14-11 22 33 15 2zm25 7c-9-1-16 2-20 10l-15 19c-3 5-10 14-11 18-2 3-4 3-8 2-4-5-18-28-21-28-9-2-22 3-30 6l1-11c3-44 7-78 14-123l4-7c7-10 7-10 15-1l21 24 37 40c9 10 18 20 26 32 15 19 17 29-13 19zm45 238c4 8 5 18 2 26-1 3-19 17-37 11l-17-29c1-10 43-18 52-8zm67-11c15 25 6 37-25 40-3 0-6-5-5-9-24-29 12-33 30-31zm-91-37c-1-1-5 1-5 2-3 9-11 14-16 21l-22 24c-2 2-2 14 6 12 4 0 13 26 21 34 14 2 45-5 51-21l-4-23c2 1 6-6 7-3 4-1 8 2 9 5 1 8 3 17 6 23 2 4 6 11 12 10 10-2 39-4 39-16 1-9-8-31 0-35 2-2 7-3 5-4l-46-37-11-3v12c0 3-1 8 4 9 1 1 2-9 4-13l32 26v5l-26 4c-10 1-14 2-26 6-6 2-8 3-15 2-17-10-46 3-62 9 10-9 26-29 37-38 3-1 8 6 10 8 8 8 13-5-10-19zM178 929c4 7 4 18 2 25-1 2-29 16-38 11-17-26-26-38 21-41 0 0 10-5 15 5zm67-12 4 6v6l1 13c2 8-9 12-18 14l-12 1c-23-34-15-33 11-39 9 1 11-3 14-1zm-92-37-5 2c-3 10-10 14-16 21l-22 24c-2 3 0 7-2 11l8 2c6 0 5 2 6 7s5 9 6 14l10 13c11 1 17-4 30-6l8-2c6-3 9-5 12-13l-3-22c-2 0 7-11 15 0l7 23c2 5 6 11 12 10l32-7c4-1 6-5 7-8l-2-18c0-7-7-14 2-18 2-1 6-2 4-3l-45-37-11-4-1 11v1c1 3-1 8 4 9 1 1 2-9 4-12l33 26v5l-27 3c-17 4-57 4-59 5-30 2-75 26-6-25 2-2 8 5 9 7s3 4 5 2 3-3 1-6c-4-8-8-11-16-15zm704 194c-16-22-21-35 19-41 5-3 14 0 16 4 4 8 4 18 3 27l-28 10h-10zm102-48c19 29-1 37-25 40-15-38-24-31 25-40zm-92-37-4 2c-3 9-11 15-16 22l-22 23c-3 3 0 8-2 10 4 1 5 4 7 3 6 0 5 3 6 7 1 5 13 23 17 27 15 1 44-6 50-21l-4-23c2 1 6-6 6-4 5 0 9 1 9 6l7 22c2 5 6 10 12 10l32-7c5-1 6-4 6-8 1-6-1-13-1-18 1-6-6-14 1-18 3-1 8-2 6-4l-46-36-10-4-1 12c0 23 7-2 8-3l32 30c-11 2-61 14-67 12-7-4-12-4-19-4-11 2-32 9-44 13 11-8 27-29 38-37 3-2 8 5 9 7 2 2 3 4 6 2 6-7-10-18-16-21zm-459 94-2 1c-4-1-4 0-4 2 1 6 6 20-1 22v-6c-2-20-6-24 6-42l9-5 1-3-10 1 3-6c0-2 0-3-3-4s-6 0-7 2c0 19-12-3-14-7-2 0-4 2-4 3v11l-5-2c-4-1-8 2-8 4 0 3 4 5 7 5h6l4 43-1 8-3-6c-3-33 0-14-16-31-19-16-10-40 3-57 7-9 17-11 28-9 5 0 12 1 17 4 40 13 29 55-6 72zm-7 44-13 1-2-4 3-2c4 0 10 0 15-2 3-3 6 7-3 7zm-3-22-1 3-7-5-5-43c0-9 8-6 14-5 2 0 3 1 4 4-10 20-7 25-5 46zm-10 8h13l4 2-3 2-11 3c-3-1-6 0-6-4 1 0-2-3 3-3zm-20-99c-16 23-16 16-15 43 5 33 22 5 27 47 0 9 2 17 4 26 2 6 7 10 14 8 7-3 11-8 12-16l-1-10c-2-5-6-23 1-26 82-41-15-111-42-72z" fill="#e0e0e0" fill-rule="nonzero"/><path d="m123 283 13-3c12-2 12-1 25-1 3 1 31 2 47 8 9 3 13 1 11-2l-12-23 9-5 28 54-23-8-19-6-14-3-13-2-15-1-15-1c-16 1-29 4-28 22 2 24 19 51 41 62l11 4c13 5 37 5 49 0 11-4 25-13 35-25 4-6 11-15 8-21-6 0-15 7-48 3l-33-7s-17-7-13 1l11 23-9 5-28-54c8 1 32 11 41 13l15 3 14 3 16 2h14c18-1 29-6 27-25l-2-13c-7-23-27-44-51-51-12-4-26-4-39-1a75 75 0 0 0-49 37c-2 3-5 7-4 12zm370 354 9 5c9 6 8 6 16 13 1 2 18 18 24 30 4 7 7 8 8 5l5-20 8 2-12 47-10-17-8-14-7-9-7-8-8-10-9-8c-10-7-20-13-29-1a64 64 0 0 0-8 59l4 9c6 10 20 23 30 26 9 4 22 6 35 4 6-2 15-3 17-9-4-3-13-3-31-24l-17-22s-7-13-9-6l-5 20-9-2 13-48c4 5 13 24 18 30l7 10 7 9 9 10 8 8c12 9 21 12 30-1l6-9a63 63 0 0 0-27-80 62 62 0 0 0-50-4c-3 1-7 1-8 5zm28 332 13 3c11 4 11 5 21 10 3 3 28 16 39 29 7 7 11 7 11 3v-25h10v59l-17-17-14-13-11-10-11-7-13-9-13-7c-14-6-27-10-34 8-9 21-7 53 8 73l8 9c9 10 30 21 43 22s29 0 44-7c6-3 16-8 16-15-5-2-16 0-44-19l-27-21s-12-14-12-5v26h-11v-61c7 5 24 24 31 30l12 10 11 9 13 8 13 7c16 8 28 8 35-10l4-12c5-24-4-51-22-69-9-9-21-15-34-18a76 76 0 0 0-61 10c-3 2-8 4-8 9z" fill="#e0e0e0"/><path d="M819 598v6l-6 1-5-15c-1-7-7-17 1-17 26 3 39-22 13-35 3 0-35 0-40-13 64-32 125 47 46 56-13 1-11 5-9 17zm-42-73c-4 3-1 25 4 20 10-8 19-9 32-6 31 8 22 36-10 29-2-1-5 0-4 3l8 40c0 6 17 0 17-13l-1-12 12-1c83-9-8-110-58-60zm40 93c-3 0-8 6-8 9 1 3 6 6 8 6 4 0 8-5 8-9 0-3-4-6-8-6z" fill="#e0e0e0" fill-rule="nonzero"/></svg>