<svg xmlns="http://www.w3.org/2000/svg" xml:space="preserve" fill-rule="evenodd" width="2244" height="531" clip-rule="evenodd" image-rendering="optimizeQuality" shape-rendering="geometricPrecision" text-rendering="geometricPrecision" version="1.1" viewBox="0 0 2244 531"><path d="M149 94c11 4 19 1 42 9 37 12 36 15 71 34 9 7 88 52 126 93 21 22 34 22 34 10v-83h33v194l-55-56c-14-15-31-33-45-44l-36-30-36-25-41-27-42-24c-46-19-89-31-112 25-30 69-22 173 27 237l25 29c31 34 98 69 141 73 40 4 92-2 140-23 21-10 53-25 55-48-19-9-54-2-144-62l-87-69s-39-44-39-16v84h-36V177c23 16 76 78 100 99l38 31c11 11 24 21 36 29l43 27c13 10 27 16 42 23 53 25 91 25 113-32 6-13 10-26 13-40 16-79-13-167-70-223-31-30-69-50-111-60a244 244 0 0 0-198 32c-10 8-25 14-27 31zm576 170c0-18 6-46 12-58 22-44 115-47 115 44 0 34 3 103-55 103h-17c-42 0-55-46-55-89zm-89 6c0 19 4 47 8 61 17 56 62 95 119 95 38 0 65 3 101-15 94-46 98-193 43-262-40-51-177-62-235 7-24 30-36 72-36 114zm1065-98h17c33 0 46 30 46 63h-109c2-28 17-63 46-63zm-3 254c37 0 58 2 94-10 49-16 42-17 42-65 0-29-54 5-87 5-37 0-91 5-92-63h147c46 0 46-17 46-49 0-76-46-136-115-136-49 0-99 1-133 49-22 31-31 59-33 111-2 46 10 83 30 112 17 23 61 46 101 46zm218-303c0 11 29 58 36 71 48 85 45 57-3 143-5 10-38 66-38 71 0 7 1 4 2 12 23 5 41 3 67 3 24 0 31-39 52-75 6-9 12-18 14-29 11 12 37 68 45 85 13 26 24 19 82 19 36 0 6-41 0-52-69-140-73-80-23-176 48-92 55-84-29-84-23 0-32 40-51 71-5 8-10 18-12 27l-4-5-4-7-7-14-14-26c-27-55-14-46-92-46-9 0-21 6-21 12zm-866-69v60c-44 0-46-6-46 43 0 33 21 29 46 29v150c0 50 32 90 75 90 65 0 84 3 84-55 0-41-24-20-35-20-17 0-37 5-37-32V186c68 0 72 6 72-46 0-34-15-26-72-26 0-83 9-75-67-75-9 0-20 5-20 15zm341 95v-29c-19-13-20-9-55-9-13 0-20 7-20 20 0 48-4 256 3 286 18 9 39 6 63 6 11 0 14-5 21-9V279c0-35-5-38 10-59 20-29 33-36 62-29 32 8 29-10 29-51 0-36-24-32-55-32-12 0-25 10-33 16-19 15-17 19-25 25z" fill="lightgray"/></svg>